<svg xmlns="http://www.w3.org/2000/svg" viewBox="0 0 1200 900" role="img" aria-labelledby="title desc">
  <title id="title">Sapo e plasticidade fenotípica</title>
  <desc id="desc">Sapo estilizado em ambiente com gradientes climáticos e curvas de resposta fenotípica.</desc>
  <defs>
    <linearGradient id="bg" x1="0" x2="1" y1="0" y2="1"><stop stop-color="#064e3b"/><stop offset=".55" stop-color="#14532d"/><stop offset="1" stop-color="#0f172a"/></linearGradient>
    <radialGradient id="pond" cx="50%" cy="50%" r="65%"><stop stop-color="#67e8f9" stop-opacity=".9"/><stop offset="1" stop-color="#0e7490" stop-opacity=".35"/></radialGradient>
    <filter id="shadow" x="-20%" y="-20%" width="140%" height="140%"><feDropShadow dx="0" dy="24" stdDeviation="22" flood-color="#020617" flood-opacity=".35"/></filter>
  </defs>
  <rect width="1200" height="900" fill="url(#bg)"/>
  <circle cx="912" cy="140" r="84" fill="#fde68a" opacity=".85"/>
  <g opacity=".28" stroke="#bbf7d0" stroke-width="3" fill="none"><path d="M80 700 C240 610 430 748 600 650 S930 570 1120 690"/><path d="M70 760 C260 680 410 790 590 720 S910 650 1130 740"/></g>
  <ellipse cx="610" cy="662" rx="390" ry="118" fill="url(#pond)" opacity=".72"/>
  <g transform="translate(324 214)" filter="url(#shadow)">
    <ellipse cx="278" cy="262" rx="238" ry="178" fill="#4ade80"/>
    <ellipse cx="278" cy="292" rx="178" ry="116" fill="#86efac" opacity=".92"/>
    <circle cx="142" cy="140" r="82" fill="#4ade80"/><circle cx="414" cy="140" r="82" fill="#4ade80"/>
    <circle cx="142" cy="120" r="42" fill="#f8fafc"/><circle cx="414" cy="120" r="42" fill="#f8fafc"/>
    <circle cx="154" cy="126" r="19" fill="#0f172a"/><circle cx="402" cy="126" r="19" fill="#0f172a"/>
    <path d="M208 238 C248 270 314 270 354 238" stroke="#14532d" stroke-width="10" stroke-linecap="round" fill="none"/>
    <g fill="#166534" opacity=".45"><circle cx="104" cy="234" r="18"/><circle cx="176" cy="286" r="13"/><circle cx="428" cy="246" r="16"/><circle cx="378" cy="318" r="12"/><circle cx="288" cy="188" r="14"/></g>
    <path d="M78 356 C-4 408 -20 492 72 498" stroke="#4ade80" stroke-width="42" stroke-linecap="round" fill="none"/>
    <path d="M478 356 C560 408 576 492 484 498" stroke="#4ade80" stroke-width="42" stroke-linecap="round" fill="none"/>
  </g>
  <g transform="translate(70 85)">
    <rect width="430" height="148" rx="18" fill="#f8fafc" opacity=".93"/>
    <text x="26" y="48" font-family="Inter, Arial, sans-serif" font-size="26" font-weight="800" fill="#0f172a">Phenotypic plasticity</text>
    <text x="26" y="84" font-family="Inter, Arial, sans-serif" font-size="17" fill="#334155">respostas adaptativas sob custos climáticos</text>
    <path d="M28 120 C88 84 126 156 186 118 S296 78 372 119" stroke="#16a34a" stroke-width="6" fill="none" stroke-linecap="round"/>
  </g>
  <g transform="translate(825 512)" fill="none" stroke-linecap="round">
    <rect x="0" y="0" width="290" height="190" rx="18" fill="#f8fafc" opacity=".92" stroke="none"/>
    <path d="M36 142 C92 88 126 76 166 92 S220 128 252 46" stroke="#0ea5e9" stroke-width="8"/>
    <path d="M36 156 C108 132 154 136 244 126" stroke="#22c55e" stroke-width="8"/>
    <text x="32" y="42" font-family="Inter, Arial, sans-serif" font-size="18" font-weight="700" fill="#0f172a" stroke="none">curvas de resposta</text>
  </g>
</svg>